<svg width="115" height="33" viewBox="0 0 115 33" fill="none" xmlns="http://www.w3.org/2000/svg">
<g clip-path="url(#clip0_6744_4043)">
<mask id="mask0_6744_4043" style="mask-type:luminance" maskUnits="userSpaceOnUse" x="0" y="0" width="115" height="34">
<path d="M0 0H114.105V33.0415H0V0Z" fill="white"/>
</mask>
<g mask="url(#mask0_6744_4043)">
<path d="M109.919 33.0415H4.2496C1.9028 33.0415 0 31.1852 0 28.8958V4.14565C0 1.85626 1.9028 0 4.2496 0H109.919C112.265 0 114.168 1.85626 114.168 4.14565V28.8958C114.105 31.1852 112.202 33.0415 109.919 33.0415Z" fill="black"/>
</g>
<path d="M109.919 0H4.2496C1.9028 0 0 1.85626 0 4.14565V28.8958C0 31.1852 1.9028 33.0415 4.2496 33.0415H109.919C112.265 33.0415 114.168 31.1852 114.168 28.8958V4.14565C114.105 1.85626 112.202 0 109.919 0ZM109.919 0.680629C111.885 0.680629 113.471 2.22751 113.471 4.14565V28.8958C113.471 30.8139 111.885 32.3608 109.919 32.3608H4.2496C2.28337 32.3608 0.697695 30.8139 0.697695 28.8958V4.14565C0.697695 2.22751 2.28337 0.680629 4.2496 0.680629H109.919Z" fill="#A6A5A5"/>
<path d="M90.3831 24.7502H91.9688V14.4789H90.3831V24.7502ZM104.591 18.1914L102.751 22.6465L100.849 18.1914H99.136L101.927 24.4409L100.341 27.9059H101.99L106.303 18.1914H104.591ZM95.6476 23.5746C95.1402 23.5746 94.379 23.3271 94.379 22.7083C94.379 21.904 95.267 21.5946 96.0281 21.5946C96.7258 21.5946 97.043 21.7183 97.4869 21.9658C97.4235 22.894 96.599 23.5746 95.6476 23.5746ZM95.8379 17.9439C94.6962 17.9439 93.4911 18.4389 93.0471 19.4908L94.4425 20.0477C94.7596 19.4908 95.3304 19.3052 95.9013 19.3052C96.7258 19.3052 97.5504 19.8002 97.5504 20.6046V20.7283C97.2332 20.5427 96.6624 20.3571 95.9013 20.3571C94.379 20.3571 92.8568 21.1615 92.8568 22.7083C92.8568 24.0696 94.1253 24.9977 95.4573 24.9977C96.5355 24.9977 97.1064 24.5646 97.4869 24.0077H97.5504V24.7502H99.0726V20.7902C99.0726 18.9958 97.6772 17.9439 95.8379 17.9439ZM86.1335 19.4289H83.9136V15.9021H86.1335C87.3387 15.9021 87.9729 16.8302 87.9729 17.6964C87.9729 18.4389 87.2752 19.4289 86.1335 19.4289ZM86.0701 14.4789H82.2645V24.7502H83.8502V20.8521H86.0701C87.8461 20.8521 89.5586 19.6146 89.5586 17.6346C89.5586 15.7164 87.8461 14.4789 86.0701 14.4789ZM65.4564 23.5746C64.3781 23.5746 63.4267 22.7083 63.4267 21.4708C63.4267 20.2333 64.3147 19.3052 65.4564 19.3052C66.5347 19.3052 67.3592 20.2333 67.3592 21.4708C67.3592 22.7083 66.5347 23.5746 65.4564 23.5746ZM67.2958 18.7483C66.9152 18.3152 66.2175 17.9439 65.3295 17.9439C63.5536 17.9439 61.9045 19.4908 61.9045 21.4708C61.9045 23.4509 63.5536 24.9359 65.3295 24.9359C66.2175 24.9359 66.8518 24.5646 67.2324 24.1315H67.2958V24.6265C67.2958 25.9877 66.5347 26.6684 65.393 26.6684C64.4416 26.6684 63.8073 25.9877 63.5536 25.4309L62.1582 26.0496C62.5388 26.9777 63.617 28.0915 65.3295 28.0915C67.1689 28.0915 68.7546 27.0396 68.7546 24.4409V18.1914H67.2324V18.7483H67.2958ZM69.8329 24.7502H71.4185V14.4789H69.8329V24.7502ZM73.7653 21.3471C73.7019 19.9858 74.8436 19.3052 75.6681 19.3052C76.3024 19.3052 76.8098 19.6146 77.0001 20.0477L73.7653 21.3471ZM78.6492 20.1715C78.332 19.3671 77.4441 17.9439 75.5413 17.9439C73.7019 17.9439 72.1796 19.3671 72.1796 21.4708C72.1796 23.4509 73.7019 24.9977 75.7316 24.9977C77.3806 24.9977 78.3321 24.0077 78.7126 23.4509L77.5075 22.6465C77.1269 23.2033 76.5561 23.6365 75.7316 23.6365C74.907 23.6365 74.3362 23.2652 74.019 22.5846L78.8395 20.6665L78.6492 20.1715ZM40.4028 19.0577V20.5427H44.0816C43.9547 21.409 43.701 21.9658 43.257 22.399C42.6862 22.894 41.7982 23.5127 40.4028 23.5127C38.1829 23.5127 36.4069 21.7183 36.4069 19.5527C36.4069 17.3871 38.1829 15.5927 40.4028 15.5927C41.6079 15.5927 42.4959 16.0877 43.1302 16.6446L44.2084 15.5927C43.3204 14.7264 42.1153 14.1077 40.4028 14.1077C37.2949 14.1077 34.7578 16.5827 34.7578 19.5527C34.7578 22.5846 37.3583 24.9977 40.4028 24.9977C42.0519 24.9977 43.3204 24.4409 44.2718 23.4509C45.2867 22.4608 45.6038 21.0996 45.6038 19.9858C45.6038 19.6146 45.6038 19.3052 45.5404 19.0577H40.4028ZM49.7265 23.5746C48.6483 23.5746 47.6969 22.7083 47.6969 21.4708C47.6969 20.2333 48.6483 19.3671 49.7265 19.3671C50.8048 19.3671 51.7562 20.2333 51.7562 21.4708C51.7562 22.7083 50.8048 23.5746 49.7265 23.5746ZM49.7265 17.9439C47.7603 17.9439 46.1112 19.429 46.1112 21.4708C46.1112 23.5127 47.7603 24.9977 49.7265 24.9977C51.6928 24.9977 53.3419 23.5127 53.3419 21.4708C53.3419 19.429 51.7562 17.9439 49.7265 17.9439ZM57.5915 23.5746C56.5132 23.5746 55.5618 22.7083 55.5618 21.4708C55.5618 20.2333 56.5132 19.3671 57.5915 19.3671C58.6697 19.3671 59.6211 20.2333 59.6211 21.4708C59.6211 22.7083 58.6697 23.5746 57.5915 23.5746ZM57.5915 17.9439C55.6252 17.9439 53.9761 19.429 53.9761 21.4708C53.9761 23.5127 55.6252 24.9977 57.5915 24.9977C59.5577 24.9977 61.2068 23.5127 61.2068 21.4708C61.2068 19.429 59.6211 17.9439 57.5915 17.9439Z" fill="white"/>
<path d="M17.5056 16.0256L8.49902 25.3688C8.75273 26.3588 9.70413 27.1013 10.8458 27.1013C11.2898 27.1013 11.7338 26.9776 12.0509 26.792L22.1992 21.0994L17.5056 16.0256Z" fill="#EA4435"/>
<path d="M26.6392 14.4789L22.2627 12.0039L17.3154 16.2733L22.2627 21.0996L26.6392 18.6246C27.4003 18.1914 27.9077 17.4489 27.9077 16.5208C27.9077 15.6546 27.4003 14.8502 26.6392 14.4789Z" fill="#F9BC15"/>
<path d="M8.49897 7.67261C8.43555 7.85823 8.43555 8.04386 8.43555 8.29136V24.7502C8.43555 24.9358 8.43555 25.1833 8.49897 25.369L17.8227 16.2733L8.49897 7.67261Z" fill="#547DBF"/>
<path d="M17.569 16.5208L22.1992 12.0039L12.0509 6.31133C11.6703 6.1257 11.2263 6.00195 10.7823 6.00195C9.64066 6.00195 8.68925 6.74446 8.43555 7.73446L17.569 16.5208Z" fill="#33A851"/>
<path d="M36.9782 10.0858C37.549 10.0858 38.0565 9.90015 38.3736 9.59078C38.6907 9.2814 38.881 8.84827 38.881 8.22952C38.881 7.67264 38.6907 7.23951 38.3736 6.86826C38.0565 6.55888 37.549 6.37326 36.9782 6.37326H36.1536V10.0239H36.9782V10.0858ZM35.3291 5.69263H37.0416C37.6125 5.69263 38.0565 5.81638 38.437 6.002C38.8176 6.18763 39.1347 6.49701 39.3884 6.93013C39.5787 7.30139 39.7056 7.79639 39.7056 8.29139C39.7056 8.7864 39.5787 9.21952 39.3884 9.65265C39.1981 10.0239 38.881 10.3333 38.437 10.5808C38.0565 10.7664 37.549 10.8902 37.0416 10.8902H35.3291V5.69263Z" fill="white"/>
<path d="M40.7832 5.69263H41.5443V10.8283H40.7832V5.69263Z" fill="white"/>
<path d="M43.2573 10.5806C42.9401 10.3331 42.6864 9.96189 42.5596 9.52876L43.3207 9.21939C43.3841 9.52876 43.511 9.71439 43.7647 9.90002C43.955 10.0856 44.2087 10.1475 44.4624 10.1475C44.7161 10.1475 44.9698 10.0856 45.1601 9.96189C45.3504 9.83814 45.4138 9.65251 45.4138 9.40501C45.4138 9.21939 45.3504 9.03376 45.1601 8.84813C44.9698 8.72438 44.7161 8.53876 44.3355 8.41501L44.0184 8.29126C43.6378 8.16751 43.3841 7.98188 43.1304 7.79625C42.8767 7.54875 42.7499 7.30125 42.7499 6.93C42.7499 6.6825 42.8133 6.435 42.9401 6.24937C43.067 6.06374 43.2573 5.87812 43.511 5.75437C43.7647 5.69249 44.0818 5.63062 44.3989 5.63062C44.8429 5.63062 45.2235 5.75437 45.4772 5.93999C45.7309 6.18749 45.9212 6.37312 46.048 6.6825L45.3504 6.99187C45.2869 6.80625 45.2235 6.6825 45.0332 6.55875C44.9064 6.435 44.6527 6.37312 44.3989 6.37312C44.1452 6.37312 43.955 6.435 43.7647 6.55875C43.5744 6.6825 43.511 6.86812 43.511 7.05375C43.511 7.23937 43.5744 7.36313 43.7647 7.48688C43.8915 7.61063 44.1452 7.73438 44.4624 7.79625L44.7795 7.92C45.2235 8.04375 45.6041 8.29126 45.7943 8.53876C46.048 8.78626 46.1749 9.09564 46.1749 9.52876C46.1749 9.83814 46.1115 10.1475 45.9212 10.395C45.7309 10.6425 45.5406 10.7663 45.2235 10.89C44.9698 11.0138 44.6527 11.0756 44.3989 11.0756C44.0184 10.9519 43.5744 10.8281 43.2573 10.5806Z" fill="white"/>
<path d="M49.0923 8.10577C49.346 8.10577 49.5997 8.04389 49.7266 7.85827C49.9169 7.67264 49.9803 7.48701 49.9803 7.30139C49.9803 7.05389 49.9169 6.86826 49.7266 6.74451C49.5363 6.55888 49.346 6.49701 49.0923 6.49701H48.0775V8.16764H49.0923V8.10577ZM47.2529 5.69263H49.0923C49.4094 5.69263 49.6632 5.7545 49.9803 5.87825C50.234 6.002 50.4243 6.18763 50.6146 6.43513C50.7414 6.68263 50.8683 6.93013 50.8683 7.23951C50.8683 7.54889 50.8048 7.79639 50.6146 8.04389C50.4877 8.29139 50.234 8.47702 49.9803 8.60077C49.7266 8.72452 49.4094 8.7864 49.0923 8.7864H48.0775V10.7664H47.2529V5.69263Z" fill="white"/>
<path d="M55.1817 9.962C55.4988 9.77637 55.6891 9.59075 55.8794 9.28137C56.0697 8.97199 56.1331 8.66262 56.1331 8.29136C56.1331 7.92011 56.0697 7.61074 55.8794 7.30136C55.6891 6.99198 55.4988 6.80636 55.1817 6.62073C54.8646 6.4351 54.5474 6.37323 54.2303 6.37323C53.8497 6.37323 53.5326 6.4351 53.2789 6.62073C52.9617 6.80636 52.7715 6.99198 52.5812 7.30136C52.3909 7.61074 52.3275 7.92011 52.3275 8.29136C52.3275 8.66262 52.3909 8.97199 52.5812 9.28137C52.7715 9.59075 52.9617 9.77637 53.2789 9.962C53.596 10.1476 53.9132 10.2095 54.2303 10.2095C54.5474 10.2095 54.8646 10.1476 55.1817 9.962ZM52.8349 10.6426C52.3909 10.3951 52.0738 10.0858 51.8835 9.65262C51.6298 9.2195 51.5029 8.78637 51.5029 8.29136C51.5029 7.79636 51.6298 7.36323 51.8835 6.93011C52.1372 6.49698 52.4543 6.1876 52.8349 5.9401C53.2789 5.6926 53.7229 5.56885 54.2303 5.56885C54.7377 5.56885 55.1817 5.6926 55.6257 5.9401C56.0697 6.1876 56.3868 6.49698 56.5771 6.93011C56.8308 7.36323 56.9576 7.79636 56.9576 8.29136C56.9576 8.78637 56.8308 9.2195 56.5771 9.65262C56.3234 10.0858 56.0062 10.3951 55.6257 10.6426C55.1817 10.8901 54.7377 11.0139 54.2303 11.0139C53.7229 11.0139 53.2155 10.8283 52.8349 10.6426Z" fill="white"/>
<path d="M57.9717 5.69263H58.9231L61.3333 9.46703V8.47702V5.69263H62.0944V10.8283H61.2699L58.7962 6.86826H58.7328L58.7962 7.85827V10.8283H57.9717V5.69263Z" fill="white"/>
<path d="M63.4268 5.69263H64.2513V10.8283H63.4268V5.69263Z" fill="white"/>
<path d="M67.6126 10.1477C67.8663 10.1477 68.0566 10.0858 68.2469 9.90015C68.3737 9.7764 68.5006 9.59078 68.5006 9.34328C68.5006 9.15765 68.4372 8.97202 68.2469 8.7864C68.0566 8.66265 67.8663 8.53889 67.6126 8.53889H66.4075V10.0858H67.6126V10.1477ZM67.4858 7.85827C67.7395 7.85827 67.9298 7.79639 68.0566 7.61076C68.1835 7.48701 68.2469 7.30139 68.2469 7.11576C68.2469 6.93013 68.1835 6.74451 68.0566 6.62076C67.9298 6.49701 67.7395 6.43513 67.4858 6.43513H66.3441V7.85827H67.4858ZM65.583 5.69263H67.5492C67.8029 5.69263 68.12 5.7545 68.3103 5.87825C68.564 6.002 68.7543 6.18763 68.8812 6.37326C69.008 6.55888 69.0714 6.80638 69.0714 7.05389C69.0714 7.30139 69.008 7.54889 68.8812 7.73451C68.7543 7.92014 68.564 8.04389 68.3737 8.16764V8.22952C68.6274 8.29139 68.8812 8.47702 69.008 8.66265C69.1983 8.84827 69.2617 9.09577 69.2617 9.40515C69.2617 9.71453 69.1983 9.96203 69.008 10.1477C68.8812 10.3952 68.6274 10.5189 68.3737 10.6427C68.12 10.7664 67.8663 10.8283 67.5492 10.8283H65.5195V5.69263H65.583Z" fill="white"/>
<path d="M70.3408 5.69263H71.1654V10.0858H73.4487V10.8283H70.3408V5.69263Z" fill="white"/>
<path d="M74.2725 5.69263H77.4438V6.49701H75.097V7.92014H77.2535V8.66265H75.097V10.0858H77.4438V10.8283H74.2725V5.69263Z" fill="white"/>
<path d="M80.1719 5.69263H83.4066V6.49701H80.9964V7.92014H83.1529V8.66265H80.9964V10.0858H83.4066V10.8283H80.1719V5.69263Z" fill="white"/>
<path d="M84.5479 5.69263H85.4993L87.846 9.46703H87.9095L87.846 8.47702V5.69263H88.6706V10.8283H87.846L85.309 6.86826V7.85827V10.8283H84.5479V5.69263Z" fill="white"/>
</g>
<defs>
<clipPath id="clip0_6744_4043">
<rect width="114.168" height="32.9796" fill="white"/>
</clipPath>
</defs>
</svg>
